<svg width="249" height="40" viewBox="0 0 249 40" fill="none" xmlns="http://www.w3.org/2000/svg">
<g opacity="0.2" clip-path="url(#clip0_1216_1756)">
<path d="M66.5294 31.6218H63.6869V7.96808H66.9417C69.7573 7.96808 77.0919 9.88644 77.0919 19.8887C77.0919 29.8908 69.0309 31.6308 66.5383 31.6308L66.5294 31.6218ZM67.1839 0.517711H54.8459V39.0812H66.8074C74.7966 39.0812 86.3633 34.1738 86.3633 19.8797C86.3633 5.58574 73.8549 0.508789 67.1749 0.508789" fill="white"/>
<path d="M102.772 33.1476C99.1586 33.1476 96.2266 30.1674 96.2266 26.4912C96.2266 22.8152 99.1586 19.835 102.772 19.835C106.386 19.835 109.318 22.8152 109.318 26.4912C109.318 30.1674 106.386 33.1476 102.772 33.1476ZM109.838 13.9283V17.4527L108.78 16.266C107.704 15.0614 105.328 13.0449 101.436 13.0449C98.0198 13.0449 94.6844 14.3655 92.4964 16.5872C91.0618 18.0416 88.6588 21.2984 88.6588 26.7322C88.6588 30.4708 89.7616 33.326 92.2186 36.0028C94.6932 38.6528 97.697 40 101.14 40C103.041 40 106.547 39.545 108.735 36.4756L109.829 34.941V39.1168H117.119V13.9193H109.838V13.9283Z" fill="white"/>
<path d="M154.061 33.1476C150.447 33.1476 147.515 30.1674 147.515 26.4912C147.515 22.8152 150.447 19.835 154.061 19.835C157.674 19.835 160.606 22.8152 160.606 26.4912C160.606 30.1674 157.674 33.1476 154.061 33.1476ZM161.126 13.9283V17.4527L160.068 16.266C158.992 15.0614 156.616 13.0449 152.725 13.0449C149.308 13.0449 145.973 14.3655 143.785 16.5872C142.35 18.0416 139.947 21.2984 139.947 26.7322C139.947 30.4708 141.05 33.326 143.507 36.0028C145.982 38.6528 148.986 40 152.429 40C154.33 40 157.835 39.545 160.023 36.4756L161.117 34.941V39.1168H168.407V13.9193H161.126V13.9283Z" fill="white"/>
<path d="M124.946 0.518066V13.9287H121.978V20.4422H124.946V39.1082H133.043V20.4422H138.342V13.9287H133.043V0.518066H124.946Z" fill="white"/>
<path d="M234.562 0.508789V39.108H242.658V20.4418H247.958V13.9284H242.658V0.508789H234.562Z" fill="white"/>
<path d="M191.505 9.592L197.118 26.0096H186.035L191.505 9.592ZM186.564 0.508789L171.985 39.0812H181.104L183.776 32.3268H199.288L201.726 39.0812H210.944L196.643 0.508789H186.564Z" fill="white"/>
<path d="M213.886 39.1078H221.982V28.4276C221.982 27.3568 221.982 24.0822 224.268 21.9586C225.416 20.8968 226.94 20.3794 228.93 20.3794C230.302 20.3794 231.8 20.415 232.338 20.424V13.9462C231.962 13.9194 230.724 13.8569 230.724 13.8569C229.156 13.8569 227.676 13.8569 226.546 14.4815C225.094 15.2221 223.91 16.3999 223.12 17.8989L221.972 20.076V13.9283H213.876V39.1168L213.886 39.1078Z" fill="white"/>
<path d="M29.574 10.1521L19.8798 19.7989L29.574 29.4457L39.2684 19.7989L29.574 10.1521Z" fill="white"/>
<path opacity="0.8" d="M39.2623 19.7994L29.5695 10.1541L39.2623 0.508789V19.7994Z" fill="white"/>
<path d="M10.1927 29.4358L19.8856 19.7993L29.5694 29.4358H10.1927Z" fill="white" fill-opacity="0.6"/>
<path d="M19.8856 39.081L39.2622 19.7993V39.081H19.8856Z" fill="white" fill-opacity="0.75"/>
<path d="M19.8856 39.0814L29.5694 29.436H10.1928L0.5 39.0814H19.8856Z" fill="white" fill-opacity="0.5"/>
<path d="M0.5 0.508789L19.8856 19.7994L39.2622 0.508789H0.5Z" fill="white" fill-opacity="0.4"/>
<path d="M0.5 39.0812L19.8856 19.7994L0.5 0.508789V39.0812Z" fill="white" fill-opacity="0.9"/>
</g>
<defs>
<clipPath id="clip0_1216_1756">
<rect width="248" height="40" fill="white" transform="translate(0.5)"/>
</clipPath>
</defs>
</svg>
