<svg width="137" height="50" viewBox="0 0 137 50" fill="none" xmlns="http://www.w3.org/2000/svg">
<g opacity="0.2" clip-path="url(#clip0_1216_1754)">
<path d="M26.2722 17.0309H33.7567V8.73812C33.7567 6.42211 32.6626 5.25166 30.4247 5.25166H29.5793C27.3663 5.25166 26.2473 6.42211 26.2473 8.73812V17.0309H26.2722ZM26.2722 22.3353L26.2971 31.4499C26.2971 33.7659 27.416 34.9115 29.629 34.9115H30.5988C32.8118 34.9115 33.9308 33.7659 33.9308 31.4499V26.9673H39.0282V31.2258C39.0282 37.0781 36.1935 40.0665 30.5739 40.0665H29.455C23.8354 40.0665 21.0007 37.103 21.0007 31.9231V9.63464C21.0007 3.08507 23.8354 0.121582 29.455 0.121582H30.5739C36.1935 0.121582 39.0282 3.08507 39.0282 8.93735L39.0033 22.3104H26.2722V22.3353Z" fill="white"/>
<path d="M47.7063 32.8196C49.1485 34.1146 50.8145 34.8368 52.5551 34.8368C54.4946 34.8368 55.6135 33.8904 55.6135 31.6492V8.48909C55.6135 6.24779 54.4946 5.30147 52.5551 5.30147C50.8145 5.30147 49.1485 6.02366 47.7063 7.31863V32.8196ZM42.4348 0.56984H47.7063V3.10998C48.9496 1.7403 51.088 0.146484 54.1465 0.146484C58.6471 0.146484 60.8601 3.2594 60.8601 7.89141V32.3464C60.8601 36.9785 58.6471 40.0914 54.1465 40.0914C51.088 40.0914 48.9496 38.5723 47.7063 37.2773V49.8784H42.4348V0.56984Z" fill="white"/>
<path d="M76.6496 33.0437V20.1687L71.8754 22.0614C69.9359 22.8583 69.3143 23.8793 69.3143 26.1206V32.0476C69.3143 33.9403 70.2094 34.8617 71.8754 34.8617C73.4668 34.8617 74.9339 34.2889 76.6496 33.0437ZM64.0428 26.021C64.0428 21.1649 65.5596 19.2224 69.5878 17.778L76.6496 15.2379V8.73812C76.6496 6.42211 75.5307 5.20185 73.3176 5.20185H72.4722C70.2592 5.20185 69.1402 6.42211 69.1402 8.73812V14.2667H64.0179V8.96225C64.0179 3.10998 66.8526 0.146484 72.4722 0.146484H73.4668C79.0864 0.146484 81.9211 3.10998 81.9211 8.96225V39.6431H76.6496V37.1777C75.2074 38.6221 73.243 40.0665 70.2094 40.0665C65.9823 40.0665 64.0428 37.5263 64.0428 33.1932V26.021Z" fill="white"/>
<path d="M103.206 39.6431H97.9344V8.16535C97.9344 6.22289 97.0393 5.35127 95.4479 5.35127C94.0057 5.35127 92.464 5.92405 90.5991 7.29373V39.6431H85.3276V0.569841H90.5991V3.10998C92.1408 1.59088 94.13 0.121582 97.0393 0.121582C99.7496 0.121582 101.54 1.29204 102.51 3.3092C104.399 1.64068 106.612 0.121582 109.646 0.121582C113.724 0.121582 115.813 2.73643 115.813 6.99489V39.6182H110.541V8.16535C110.541 6.22289 109.646 5.35127 108.055 5.35127C106.612 5.35127 105.071 5.92405 103.206 7.29373V39.6431Z" fill="white"/>
<path d="M0.735352 17.6038V22.8833L14.2622 36.1567V28.8103L5.41006 20.1688L14.2622 11.3531V4.15601L0.735352 17.6038Z" fill="white"/>
<path d="M122.502 11.3531L131.354 20.1688L122.502 28.8352V36.1567L136.028 22.8833V17.6038L122.502 4.15601V11.3531Z" fill="white"/>
</g>
<defs>
<clipPath id="clip0_1216_1754">
<rect width="136" height="50" fill="white" transform="translate(0.735352)"/>
</clipPath>
</defs>
</svg>
