<svg width="220" height="50" viewBox="0 0 220 50" fill="none" xmlns="http://www.w3.org/2000/svg">
<g opacity="0.2" clip-path="url(#clip0_1216_1757)">
<path d="M4.0696 39.0989H6.00228L9.20515 47.6607H7.25058L6.60179 45.7535H3.39892L2.72823 47.6607H0.82019L4.0696 39.0989ZM3.89166 44.3498H6.11178L5.0332 41.2085H5.00583L3.89166 44.3498Z" fill="white"/>
<path d="M13.2841 39.0989H15.1675V42.3851H18.6359V39.0989H20.5193V47.6607H18.6359V43.9667H15.1675V47.6607H13.2841V39.0989Z" fill="white"/>
<path d="M23.6236 40.4997H21.9208V39.0959H23.6236V40.4997ZM21.9208 41.4601H23.6236V47.6605H21.9208V41.4601Z" fill="white"/>
<path d="M27.3685 41.4602H28.6168V42.6013H27.3685V45.6714C27.3685 46.246 27.5136 46.391 28.0885 46.391C28.2801 46.391 28.4608 46.3801 28.6168 46.3445V47.6743C28.3294 47.7236 27.9571 47.7345 27.6203 47.7345C26.5637 47.7345 25.6658 47.5074 25.6658 46.2597V42.6013H24.6337V41.4602H25.6658V39.6023H27.3685V41.4602Z" fill="white"/>
<path d="M29.5995 43.3673C29.6953 41.783 31.1243 41.2932 32.515 41.2932C33.7496 41.2932 35.2388 41.5696 35.2388 43.0554V46.2814C35.2388 46.8451 35.299 47.4088 35.455 47.6605H33.7277C33.6674 47.469 33.6182 47.2638 33.6072 47.0613C33.0679 47.625 32.2877 47.8274 31.5185 47.8274C30.3304 47.8274 29.4079 47.2391 29.4079 45.9695C29.4325 43.1511 33.6072 44.6616 33.536 43.2715C33.536 42.5519 33.0323 42.4315 32.4328 42.4315C31.7731 42.4315 31.3652 42.6942 31.305 43.3673H29.5995ZM33.5333 44.626C33.2459 44.8777 32.6464 44.8887 32.118 44.9872C31.5897 45.083 31.1106 45.2745 31.1106 45.8984C31.1106 46.5222 31.6034 46.6892 32.1536 46.6892C33.4868 46.6892 33.5333 45.6466 33.5333 45.2608V44.626Z" fill="white"/>
<path d="M40.659 43.6437C40.5522 42.935 40.1307 42.5765 39.3998 42.5765C38.3075 42.5765 37.9489 43.6792 37.9489 44.5904C37.9489 45.4907 38.2965 46.5441 39.3642 46.5441C40.169 46.5441 40.6125 46.0516 40.7192 45.2854H42.3645C42.1373 46.9272 41.0204 47.8274 39.3779 47.8274C37.5054 47.8274 36.2462 46.5086 36.2462 44.6506C36.2462 42.7188 37.3986 41.2932 39.4134 41.2932C40.878 41.2932 42.2331 42.0594 42.3289 43.6437H40.659Z" fill="white"/>
<path d="M43.4403 39.0989H45.143V42.3249H45.1786C45.6111 41.6163 46.353 41.2934 46.9908 41.2934C48.8031 41.2934 49.2575 42.314 49.2575 43.8491V47.6634H47.5548V44.161C47.5548 43.1404 47.2673 42.6369 46.4625 42.6369C45.5372 42.6369 45.143 43.1513 45.143 44.4127V47.6634H43.4403V39.0989Z" fill="white"/>
<path d="M52.1866 40.4997H50.4839V39.0959H52.1866V40.4997ZM50.4839 41.4601H52.1866V47.6605H50.4839V41.4601Z" fill="white"/>
<path d="M62.7561 46.6892C62.0854 47.5539 61.2313 47.8631 60.4046 47.8631C57.7657 47.8631 56.1943 45.8847 56.1943 43.4139C56.1943 40.8719 57.7657 38.8936 60.4046 38.8936C62.1566 38.8936 63.8238 39.9607 64.0154 41.9171H62.2168C61.9896 40.9567 61.3052 40.4779 60.4046 40.4779C58.7128 40.4779 58.0777 41.9171 58.0777 43.4166C58.0777 44.845 58.7128 46.2815 60.4046 46.2815C61.6392 46.2815 62.3373 45.6357 62.444 44.4345H60.547V43.0308H64.1468V47.6606H62.9477L62.7561 46.6892Z" fill="white"/>
<path d="M65.4908 41.4601H67.1114V42.6121H67.1361C67.4591 41.8323 68.2639 41.2932 69.1153 41.2932C69.2467 41.2932 69.3671 41.3178 69.4876 41.3534V42.9377C69.3316 42.9021 69.0797 42.8775 68.8771 42.8775C67.6179 42.8775 67.1963 43.7641 67.1963 44.8695V47.6633H65.4936V41.4601H65.4908Z" fill="white"/>
<path d="M72.9287 41.2932C74.8833 41.2932 76.1453 42.5875 76.1453 44.5658C76.1453 46.5332 74.886 47.8274 72.9287 47.8274C70.9851 47.8274 69.7258 46.5332 69.7258 44.5658C69.7258 42.5875 70.9851 41.2932 72.9287 41.2932ZM72.9287 46.5441C74.0921 46.5441 74.4398 45.5618 74.4398 44.5658C74.4398 43.5698 74.0921 42.5765 72.9287 42.5765C71.7762 42.5765 71.4286 43.5725 71.4286 44.5658C71.4286 45.5618 71.7762 46.5441 72.9287 46.5441Z" fill="white"/>
<path d="M82.7071 47.6606H81.0865V46.7959H81.0509C80.6184 47.5046 79.8738 47.8275 79.1565 47.8275C77.3443 47.8275 76.8899 46.8096 76.8899 45.2746V41.4602H78.5926V44.9626C78.5926 45.9833 78.8801 46.4867 79.6849 46.4867C80.6074 46.4867 81.0044 45.9696 81.0044 44.7109V41.4602H82.7071V47.6606Z" fill="white"/>
<path d="M83.761 41.4602H85.3816V42.251H85.4062C85.8251 41.5806 86.4848 41.2905 87.254 41.2905C89.1977 41.2905 90.0737 42.8612 90.0737 44.6233C90.0737 46.2788 89.173 47.8248 87.3498 47.8248C86.5943 47.8248 85.9099 47.5019 85.4911 46.889H85.4664V49.8387H83.7637V41.4602H83.761ZM88.3682 44.5795C88.3682 43.5835 87.9713 42.5766 86.8817 42.5766C85.7648 42.5766 85.4062 43.5726 85.4062 44.5795C85.4062 45.5865 85.7895 46.5469 86.8927 46.5469C88.0069 46.5442 88.3682 45.5865 88.3682 44.5795Z" fill="white"/>
<path d="M99.236 41.9746C99.1046 41.1236 98.2889 40.4751 97.3636 40.4751C95.6718 40.4751 95.0367 41.9144 95.0367 43.4139C95.0367 44.8422 95.6718 46.2788 97.3636 46.2788C98.5161 46.2788 99.1621 45.4989 99.3072 44.3606H101.13C100.939 46.5086 99.4742 47.8631 97.3636 47.8631C94.7246 47.8631 93.1533 45.8847 93.1533 43.4139C93.1533 40.8719 94.7246 38.8936 97.3636 38.8936C99.236 38.8936 100.832 39.9963 101.059 41.9746H99.236Z" fill="white"/>
<path d="M105.007 41.2932C106.964 41.2932 108.223 42.5875 108.223 44.5658C108.223 46.5332 106.964 47.8274 105.007 47.8274C103.063 47.8274 101.804 46.5332 101.804 44.5658C101.801 42.5875 103.063 41.2932 105.007 41.2932ZM105.007 46.5441C106.17 46.5441 106.518 45.5618 106.518 44.5658C106.518 43.5698 106.17 42.5765 105.007 42.5765C103.854 42.5765 103.507 43.5725 103.507 44.5658C103.507 45.5618 103.854 46.5441 105.007 46.5441Z" fill="white"/>
<path d="M108.653 41.4601H110.26V42.3002H110.285C110.728 41.6653 111.363 41.2932 112.182 41.2932C112.962 41.2932 113.657 41.5696 113.994 42.3248C114.366 41.7857 115.001 41.2932 115.866 41.2932C117.186 41.2932 118.133 41.9034 118.133 43.5123V47.6633H116.43V44.1499C116.43 43.3235 116.359 42.6395 115.387 42.6395C114.426 42.6395 114.249 43.4439 114.249 44.2101V47.6633H112.546V44.1855C112.546 43.4658 112.595 42.6395 111.514 42.6395C111.177 42.6395 110.361 42.8556 110.361 44.0678V47.666H108.659V41.4601H108.653Z" fill="white"/>
<path d="M119.113 41.4602H120.734V42.251H120.758C121.177 41.5806 121.837 41.2905 122.606 41.2905C124.55 41.2905 125.426 42.8612 125.426 44.6233C125.426 46.2788 124.525 47.8248 122.702 47.8248C121.946 47.8248 121.262 47.5019 120.843 46.889H120.819V49.8387H119.116V41.4602H119.113ZM123.72 44.5795C123.72 43.5835 123.323 42.5766 122.234 42.5766C121.117 42.5766 120.758 43.5726 120.758 44.5795C120.758 45.5865 121.142 46.5469 122.245 46.5469C123.359 46.5442 123.72 45.5865 123.72 44.5795Z" fill="white"/>
<path d="M126.129 43.3673C126.225 41.783 127.651 41.2932 129.045 41.2932C130.279 41.2932 131.768 41.5696 131.768 43.0554V46.2814C131.768 46.8451 131.829 47.4088 131.985 47.6605H130.257C130.197 47.469 130.151 47.2638 130.137 47.0613C129.598 47.625 128.817 47.8274 128.048 47.8274C126.86 47.8274 125.938 47.2391 125.938 45.9695C125.962 43.1511 130.137 44.6616 130.066 43.2715C130.066 42.5519 129.562 42.4315 128.963 42.4315C128.303 42.4315 127.895 42.6942 127.835 43.3673H126.129ZM130.066 44.626C129.778 44.8777 129.179 44.8887 128.65 44.9872C128.122 45.083 127.643 45.2745 127.643 45.8984C127.643 46.5222 128.136 46.6892 128.686 46.6892C130.016 46.6892 130.066 45.6466 130.066 45.2608V44.626Z" fill="white"/>
<path d="M132.847 41.4601H134.468V42.3248H134.503C134.936 41.6161 135.678 41.2932 136.398 41.2932C138.21 41.2932 138.664 42.3138 138.664 43.8489V47.6633H136.962V44.1608C136.962 43.1402 136.674 42.6367 135.869 42.6367C134.947 42.6367 134.55 43.1511 134.55 44.4126V47.6633H132.847V41.4601Z" fill="white"/>
<path d="M142.781 48.4404C142.409 49.4365 141.81 49.8442 140.646 49.8442C140.298 49.8442 139.951 49.8195 139.603 49.784V48.3802C139.926 48.4158 140.263 48.4514 140.6 48.4404C141.043 48.3912 141.259 48.0437 141.259 47.6606C141.259 47.5293 141.235 47.3952 141.188 47.2775L139.004 41.4602H140.827L142.231 45.7069H142.256L143.611 41.4602H145.374L142.781 48.4404Z" fill="white"/>
<path d="M14.5405 17.9418H24.1711C22.9228 22.3691 18.8576 25.6253 14.0341 25.6253C8.23333 25.6253 3.50567 20.9024 3.50567 15.0933C3.50567 9.28967 8.23607 4.56412 14.0341 4.56412C18.425 4.56412 22.1918 7.26483 23.7741 11.0901H26.6321C24.9321 5.75166 19.9307 1.88257 14.0341 1.88257C6.75234 1.88257 0.817444 7.80661 0.817444 15.0933C0.817444 22.38 6.75234 28.3095 14.0341 28.3095C18.1978 28.3095 22.0714 26.2218 24.3353 23.2009V27.7404H26.7826V15.3013H14.5405V17.9418Z" fill="white"/>
<path d="M33.8892 2.70337H31.253V27.7376H33.8892V2.70337Z" fill="white"/>
<path d="M111.785 2.70337H109.146V27.7075H111.785V2.70337Z" fill="white"/>
<path d="M47.6314 25.9262C43.5772 25.9262 40.2894 22.4457 40.2894 18.4069C40.2894 14.3572 43.5772 10.9068 47.6314 10.9068C51.6747 10.9068 54.9734 14.3572 54.9734 18.4069C54.9734 22.4457 51.6747 25.9262 47.6314 25.9262ZM47.6314 8.40308C42.1099 8.40308 37.6204 12.8878 37.6204 18.4069C37.6204 23.9232 42.1071 28.4053 47.6314 28.4053C53.1475 28.4053 57.6424 23.915 57.6424 18.4042C57.6397 12.8851 53.1475 8.40308 47.6314 8.40308Z" fill="white"/>
<path d="M70.7086 25.9262C66.6516 25.9262 63.3639 22.4456 63.3639 18.4041C63.3639 14.3544 66.6544 10.904 70.7086 10.904C74.7546 10.904 78.0451 14.3544 78.0451 18.4041C78.0451 22.4456 74.7546 25.9262 70.7086 25.9262ZM70.8208 8.21697C67.8588 8.21697 65.2035 9.52217 63.3611 11.5826V2.70337H60.7277V27.7403H63.3611V25.2229C65.2035 27.2834 67.8588 28.5803 70.8208 28.5803C76.3807 28.5803 80.8948 24.0272 80.8948 18.4041C80.8948 12.7783 76.3807 8.21697 70.8208 8.21697Z" fill="white"/>
<path d="M94.5111 25.9153C90.4651 25.9153 87.1691 22.4347 87.1691 18.3878C87.1691 14.3408 90.4651 10.8876 94.5111 10.8876C98.5626 10.8876 101.85 14.3408 101.85 18.3878C101.85 22.4347 98.5626 25.9153 94.5111 25.9153ZM101.872 11.6182C100.005 9.53319 97.3061 8.21704 94.2866 8.21704C88.6583 8.21704 84.0977 12.7784 84.0977 18.4042C84.0977 24.0273 88.6583 28.5804 94.2866 28.5832C97.3061 28.5832 100.005 27.2643 101.872 25.1874V27.7404H104.536V9.40732H101.872V11.6182Z" fill="white"/>
<path d="M185.848 0.156006H181.172V4.5833H185.848V0.156006Z" fill="white"/>
<path d="M121.185 2.70337H116.904V23.6934V27.7157H130.936V23.6934H121.185V2.70337Z" fill="white"/>
<path d="M185.848 8.03369H181.172V27.6802H185.848V8.03369Z" fill="white"/>
<path d="M142.806 24.3036C139.68 24.3036 137.137 21.5837 137.137 18.2318C137.137 14.8799 139.68 12.1627 142.806 12.1627C145.932 12.1627 148.473 14.8799 148.473 18.2318C148.473 21.5837 145.932 24.3036 142.806 24.3036ZM142.806 7.96802C137.137 7.96802 132.535 12.565 132.535 18.2318C132.535 23.8986 137.137 28.4928 142.806 28.4928C148.473 28.4928 153.069 23.9014 153.069 18.2318C153.069 12.5622 148.473 7.96802 142.806 7.96802Z" fill="white"/>
<path d="M205.339 20.9956C204.403 22.9876 202.486 24.353 200.269 24.353C197.14 24.353 194.6 21.6249 194.6 18.273C194.6 14.6118 197.14 12.1984 200.269 12.1984C202.38 12.1984 204.225 13.4352 205.199 15.2631H210.094C208.813 11.0601 204.895 8.00098 200.266 8.00098C194.597 8.00098 189.987 12.6007 189.987 18.2812C189.987 23.948 194.6 28.5477 200.266 28.5477C204.999 28.5477 208.974 25.349 210.171 20.9983H205.339V20.9956Z" fill="white"/>
<path d="M165.634 34.5072C163.543 34.5072 161.539 33.41 160.323 31.7627L156.171 33.7848C158.131 36.8577 161.405 38.9017 165.634 38.8962C171.109 38.8962 175.59 34.5702 176.034 29.3247H171.336C170.934 32.2525 168.536 34.5072 165.634 34.5072Z" fill="white"/>
<path d="M165.85 24.3995C162.735 24.3995 160.208 21.6824 160.208 18.3469C160.208 15.0086 162.738 12.2997 165.85 12.2997C168.974 12.2997 171.506 15.0059 171.506 18.3469C171.506 21.6824 168.974 24.3995 165.85 24.3995ZM171.856 10.0806C170.165 8.86018 168.098 8.12686 165.85 8.12686C160.208 8.12686 155.623 12.7019 155.623 18.3523C155.623 23.9973 160.206 28.5696 165.85 28.5696C171.492 28.5696 176.056 24.0192 176.08 18.3961V8.05298H171.856V10.0806Z" fill="white"/>
<path d="M214.11 4.58605C214.11 2.95796 215.344 1.76221 216.886 1.76221C218.43 1.76221 219.653 2.95796 219.653 4.58605C219.653 6.20592 218.43 7.39894 216.886 7.39894C215.342 7.39894 214.11 6.20592 214.11 4.58605ZM219.226 4.58605C219.226 3.16865 218.235 2.12887 216.883 2.12887C215.544 2.12887 214.55 3.16865 214.55 4.58605C214.55 5.99249 215.544 7.02407 216.883 7.02407C218.235 7.02407 219.226 5.99249 219.226 4.58605ZM215.785 3.05373H217.184C217.734 3.05373 218.148 3.39029 218.148 3.90198C218.148 4.24948 217.967 4.51764 217.543 4.62435V4.6353C217.89 4.72286 218.005 4.89524 218.044 5.26191C218.093 5.67508 218.093 5.98428 218.189 6.02259V6.07184H217.611C217.523 6.03354 217.512 5.71613 217.485 5.36862C217.466 5.043 217.283 4.85967 216.916 4.85967H216.376V6.07458H215.788V3.05373H215.785ZM216.374 4.40271H217.05C217.387 4.40271 217.562 4.23033 217.562 3.97038C217.562 3.71865 217.397 3.54626 217.061 3.54626H216.376V4.40271H216.374Z" fill="white"/>
</g>
<defs>
<clipPath id="clip0_1216_1757">
<rect width="219" height="50" fill="white" transform="translate(0.735291)"/>
</clipPath>
</defs>
</svg>
