<svg width="91" height="50" viewBox="0 0 91 50" fill="none" xmlns="http://www.w3.org/2000/svg">
<g opacity="0.2" clip-path="url(#clip0_1216_1752)">
<path d="M0.434601 15.2827H8.3919V20.609H8.5213C9.26525 18.9479 10.5592 17.4835 12.4029 16.2159C14.325 14.9214 16.6074 14.2554 18.9305 14.3111C21.1171 14.3111 22.99 14.6916 24.5491 15.4527C26.0382 16.162 27.3496 17.1904 28.3887 18.4637C29.4018 19.7346 30.1486 21.1933 30.585 22.7542C31.0507 24.3751 31.287 26.0522 31.2869 27.7374V48.4973H22.9124V30.0911C22.9087 29.0723 22.8385 28.0547 22.7021 27.0448C22.5814 26.0359 22.2744 25.0575 21.7964 24.1588C21.3362 23.3118 20.6772 22.587 19.875 22.0456C19.0599 21.494 17.9816 21.2172 16.6403 21.215C15.4274 21.1833 14.2263 21.458 13.1501 22.0135C12.2074 22.5125 11.3853 23.2083 10.7403 24.0529C10.0919 24.922 9.60655 25.8996 9.3073 26.939C8.97972 28.0056 8.8119 29.1141 8.80916 30.229V48.507H0.434601V15.2827Z" fill="white"/>
<path d="M90.1867 39.6569V49.5542L74.7606 36.7648L59.3346 49.5542V39.6569L74.7606 26.8708L90.1867 39.6569Z" fill="white"/>
<path d="M74.7607 26.8886L80.7286 31.7564L90.1867 24.0436V14.3079L74.7607 26.8886Z" fill="white"/>
<path d="M59.3346 24.0436L68.7927 31.7564L74.7606 26.8886L59.3346 14.3079V24.0436Z" fill="white"/>
<path d="M49.5179 15.3547H41.1036V48.5071H49.5179V15.3547Z" fill="white"/>
<path d="M50.5695 5.06009C50.5695 6.06088 50.2611 7.03921 49.6834 7.87134C49.1053 8.70347 48.2844 9.35199 47.3234 9.735C46.3623 10.118 45.3049 10.2182 44.2848 10.023C43.2646 9.82768 42.3276 9.34579 41.5921 8.6381C40.8566 7.93046 40.3558 7.02884 40.1529 6.04727C39.95 5.06569 40.0541 4.04829 40.4521 3.12368C40.8502 2.19906 41.5242 1.40879 42.389 0.852778C43.2539 0.296769 44.2706 0 45.3107 0C46.7055 0 48.043 0.533116 49.0295 1.48206C50.0155 2.43101 50.5695 3.71807 50.5695 5.06009Z" fill="white"/>
</g>
<defs>
<clipPath id="clip0_1216_1752">
<rect width="90" height="50" fill="white" transform="translate(0.264709)"/>
</clipPath>
</defs>
</svg>
