<svg width="177" height="50" viewBox="0 0 177 50" fill="none" xmlns="http://www.w3.org/2000/svg">
<g opacity="0.2" clip-path="url(#clip0_1216_1755)">
<path d="M58.7901 42.2607C58.7901 40.7968 59.9015 40.0649 61.3653 40.0649C63.0188 40.0649 64.076 41.1492 64.076 42.5046H62.9646C62.9646 41.5559 62.4496 41.0679 61.3653 41.0679C60.3894 41.0679 59.9015 41.4745 59.9015 42.2335C59.9015 42.8299 60.281 43.2365 61.555 43.616C63.5068 44.1853 64.1031 44.9443 64.1031 46.1642C64.1031 47.7093 62.9917 48.3057 61.4195 48.3057C59.6304 48.3057 58.519 47.384 58.519 45.866H59.6304C59.6304 46.8147 60.281 47.3027 61.4195 47.3027C62.4767 47.3027 62.9917 46.9232 62.9917 46.1642C62.9917 45.1883 61.9888 44.8088 61.2297 44.5919C59.4406 44.104 58.7901 43.3721 58.7901 42.2607ZM65.0519 45.378V45.2154C65.0519 43.4534 65.7838 42.3149 67.3832 42.3149C69.0096 42.3149 69.7144 43.4534 69.7144 45.2154V45.378C69.7144 47.0316 69.1723 48.3328 67.3832 48.3328C65.5941 48.3328 65.0519 47.0316 65.0519 45.378ZM66.0549 45.2425V45.4322C66.0549 46.7876 66.3531 47.4382 67.3832 47.4382C68.4133 47.4382 68.7114 46.7876 68.7114 45.4322V45.2425C68.7114 43.86 68.3862 43.2094 67.3832 43.2094C66.3531 43.2094 66.0549 43.8329 66.0549 45.2425ZM73.8077 41.0137C73.645 40.9866 73.4553 40.9866 73.2926 40.9866C72.642 40.9866 72.3981 41.339 72.3981 42.0709V42.4504H73.6179V43.345H72.3981V48.2514H71.3951V43.345H70.4734V42.4504H71.4222V42.0709C71.4222 40.824 71.9915 40.092 73.2384 40.092C73.4282 40.092 73.645 40.1192 73.8348 40.1734L73.8077 41.0137ZM77.657 48.143C77.4672 48.1972 77.2503 48.2243 77.0606 48.2243C75.8136 48.2243 75.2444 47.4924 75.2444 46.2455V43.3179H74.2956V42.4233H75.2444V40.8511H76.2474V42.4233H77.4672V43.3179H76.2474V46.2726C76.2474 46.9774 76.4913 47.384 77.1419 47.384C77.3046 47.384 77.4943 47.384 77.657 47.3569V48.143ZM83.6206 46.6521L84.5694 42.4233H85.6266L84.0273 48.2243H83.214L81.9129 44.0227L80.6388 48.2243H79.8256L78.2533 42.4233H79.3105L80.2864 46.5708L81.5333 42.4233H82.3466L83.6206 46.6521ZM89.7741 48.2243C89.6927 48.0346 89.6385 47.8177 89.6385 47.6009C89.2319 48.0617 88.6626 48.3328 88.0392 48.3328C87.0091 48.3328 86.1687 47.6822 86.1687 46.625C86.1687 45.378 87.0362 44.6732 88.7169 44.6732H89.6114V44.2937C89.6114 43.5618 89.3403 43.2094 88.5271 43.2094C87.8494 43.2094 87.4699 43.5347 87.4157 44.104H86.4127C86.494 43.0197 87.3073 42.3149 88.5813 42.3149C89.9367 42.3149 90.6144 43.0197 90.6144 44.2124V46.8418C90.5873 47.3027 90.6686 47.7906 90.8584 48.2243H89.7741ZM89.6114 46.4623V45.5407H88.9066C87.6597 45.5407 87.1446 45.866 87.1446 46.5166C87.1446 47.14 87.497 47.4382 88.1747 47.4382C88.8253 47.4111 89.3946 47.0316 89.6114 46.4623ZM94.8703 43.2636C94.6805 43.2094 94.4637 43.1823 94.2468 43.1823C93.5962 43.1823 93.1625 43.6974 92.9728 44.2666V48.1972H91.9698V42.3962H92.9457V43.1281C93.2167 42.6131 93.7318 42.2878 94.301 42.2878C94.4908 42.2878 94.6805 42.3149 94.8703 42.3962V43.2636ZM100.048 46.5979C99.831 47.628 98.9093 48.3328 97.8521 48.3328C96.1172 48.3328 95.3582 47.1129 95.3582 45.5136V45.3238C95.304 43.5618 96.307 42.2878 97.7166 42.2878C99.2346 42.2878 100.048 43.3721 100.048 45.2425V45.7304H96.3883C96.4425 46.7605 96.8491 47.4111 97.8521 47.4111C98.3672 47.4382 98.828 47.0858 98.9635 46.5708L100.048 46.5979ZM96.4154 44.863H99.0178C98.9636 43.7516 98.5569 43.1823 97.7166 43.1823C96.9305 43.2094 96.551 43.8058 96.4154 44.863Z" fill="white"/>
<path d="M58.6545 34.5351H74.2414C77.5485 34.5351 80.2593 31.987 80.2593 28.8697V27.8125C80.2593 24.7493 77.7111 22.2554 74.4582 22.147H74.3498H63.8049C62.9104 22.1741 62.1785 21.4693 62.1514 20.6018V19.5717C62.1785 18.6772 62.9104 17.9995 63.8049 17.9995H79.0665V13.9062H63.8049C60.4978 13.9062 57.787 16.4544 57.787 19.5717V20.6018C57.787 23.7192 60.4978 26.2673 63.8049 26.2673H74.2414C75.1359 26.2402 75.8678 26.945 75.8949 27.8396V28.8968C75.8678 29.7913 75.1359 30.469 74.2414 30.4419H58.6545V34.5351ZM85.4097 13.9062H89.774V34.508H85.4097V13.9062ZM146.456 34.508H150.82V19.5717C150.82 16.4544 148.11 13.9062 144.802 13.9062H123.062V34.508H127.399V18.0266H134.664V34.5351H139.029V18.0266H144.802C145.697 17.9995 146.429 18.7043 146.456 19.5717V34.508ZM176.546 19.5717C176.546 16.4544 173.835 13.9062 170.528 13.9062H156.676V17.9995H170.501C171.395 17.9724 172.127 18.6772 172.154 19.5446V22.1199H161.148C157.841 22.1199 155.13 24.668 155.13 27.7853V28.8425C155.13 31.9599 157.841 34.508 161.148 34.508H176.491L176.546 19.5717ZM172.154 30.4148H161.176C160.281 30.4419 159.549 29.7371 159.522 28.8697V27.8125C159.549 26.9179 160.308 26.2402 161.176 26.2402H172.181L172.154 30.4148ZM95.6564 28.8697C95.6564 31.987 98.3672 34.5351 101.674 34.5351H117.044V22.1741H105.578V26.2673H112.68V30.4419H101.701C100.807 30.469 100.075 29.7642 100.048 28.8968V19.5717C100.075 18.6772 100.834 17.9995 101.701 17.9995H117.017V13.9062H101.674C98.34 13.9062 95.6564 16.4544 95.6564 19.5717V28.8697Z" fill="white"/>
<path d="M48.5976 24.1528C48.5976 20.7101 41.5225 17.8096 31.7637 16.8337C32.0077 19.1379 32.1161 21.6047 32.1161 24.1528C32.1161 26.5925 32.0077 29.0593 31.7637 31.499C41.5225 30.496 48.5976 27.5955 48.5976 24.1528Z" fill="url(#paint0_linear_1216_1755)" fill-opacity="0.5"/>
<path d="M24.4447 31.8514C26.8844 31.8514 29.3512 31.7429 31.7909 31.499C32.0349 29.0593 32.1433 26.6196 32.1433 24.1528C32.1433 21.6047 32.0078 19.1379 31.7909 16.8337L17.1257 31.499C19.5382 31.7429 21.9779 31.8785 24.4447 31.8514Z" fill="url(#paint1_linear_1216_1755)" fill-opacity="0.5"/>
<path d="M24.4447 16.4814C26.8844 16.4814 29.3512 16.5899 31.7909 16.8338C30.7879 7.07509 27.8603 0 24.4447 0C21.0292 0 18.1015 7.07509 17.1257 16.8338C19.5382 16.5899 21.9779 16.4814 24.4447 16.4814Z" fill="white"/>
<path d="M24.4447 31.8514C22.005 31.8514 19.5654 31.743 17.1257 31.499C18.1287 41.2578 21.0292 48.3329 24.4447 48.3329C27.8603 48.3329 30.7879 41.2578 31.7909 31.499C29.3241 31.743 26.8844 31.8514 24.4447 31.8514Z" fill="white"/>
<path d="M16.7461 24.1528C16.7461 21.7131 16.8546 19.2734 17.0985 16.8337C7.3398 17.8367 0.264709 20.7372 0.264709 24.1528C0.264709 27.5684 7.3398 30.496 17.0985 31.499C16.8546 29.0593 16.7461 26.6196 16.7461 24.1528Z" fill="white"/>
<path d="M17.0986 16.8337C16.6106 21.7131 16.6106 26.6196 17.0986 31.4989L31.7638 16.8337C26.8844 16.3458 21.9779 16.3458 17.0986 16.8337Z" fill="white" fill-opacity="0.6"/>
</g>
<defs>
<linearGradient id="paint0_linear_1216_1755" x1="215.25" y1="135.899" x2="890.785" y2="1306.49" gradientUnits="userSpaceOnUse">
<stop stop-color="#7C7C7B"/>
<stop offset="0.27" stop-color="#5B5B5A"/>
<stop offset="0.56" stop-color="#40403F"/>
<stop offset="0.81" stop-color="#30302F"/>
<stop offset="1" stop-color="#2A2A29"/>
</linearGradient>
<linearGradient id="paint1_linear_1216_1755" x1="622.009" y1="533.547" x2="1257.04" y2="1633.79" gradientUnits="userSpaceOnUse">
<stop stop-color="white"/>
<stop offset="0.08" stop-color="white"/>
<stop offset="0.44" stop-color="white"/>
<stop offset="0.76" stop-color="white"/>
<stop offset="1" stop-color="#640C00"/>
<stop offset="1" stop-color="white"/>
</linearGradient>
<clipPath id="clip0_1216_1755">
<rect width="176.471" height="50" fill="white" transform="translate(0.264709)"/>
</clipPath>
</defs>
</svg>
