<svg width="231" height="40" viewBox="0 0 231 40" fill="none" xmlns="http://www.w3.org/2000/svg">
<path fill-rule="evenodd" clip-rule="evenodd" d="M11.7754 23.7201C8.53305 22.453 5.73289 21.3588 5.73289 18.8336C5.73289 15.9175 8.38607 14.8762 10.8704 14.8762C15.166 14.8762 17.4479 17.253 17.4711 17.2762L17.6903 17.5111L19.6125 14.2814L19.4952 14.1485C19.3843 14.0246 16.7208 11.1059 10.9787 11.1059C6.40585 11.1059 1.48495 13.524 1.48495 18.8349C1.48495 23.8556 6.01522 25.6517 10.0092 27.2362C13.2567 28.524 16.0594 29.6362 16.0594 32.1381C16.0594 34.9472 13.4539 36.204 10.8704 36.204C5.98686 36.204 3.01008 33.0298 2.98043 32.9975L2.78318 32.7846L0.5 35.813L0.628921 35.9614C0.667597 36.0014 1.53523 36.9846 3.23312 37.9756C4.79048 38.8878 7.37147 39.9756 10.8162 39.9756C16.3173 39.9756 20.3099 36.6788 20.3099 32.1381C20.3099 27.0543 15.7745 25.2814 11.7754 23.7201ZM49.5414 25.4065C49.5414 31.462 45.0163 36.204 39.2407 36.204C33.4676 36.204 28.9425 31.462 28.9425 25.4078C28.9425 19.5304 33.4676 14.9304 39.2419 14.9304C45.0176 14.9304 49.5427 19.5304 49.5427 25.4078L49.5414 25.4065ZM39.2407 11.1072C31.0851 11.1072 24.6945 17.3885 24.6945 25.4091C24.6945 33.5769 31.0851 39.9769 39.2419 39.9769C47.4 39.9769 53.7906 33.5769 53.7906 25.4091C53.7906 17.3885 47.4 11.1072 39.2419 11.1072H39.2407ZM71.7854 0.891697C71.2204 0.812016 70.6503 0.775352 70.0798 0.78202C67.1971 0.78202 60.4919 1.7846 60.4919 11.0814V12.1304H56.8087V15.6814H60.4919V39.3498H64.6277V15.6814H71.5572V12.1291H64.6277V11.0801C64.6277 8.64008 65.387 4.5446 70.4549 4.5446C71.1717 4.5446 71.6938 4.64783 71.699 4.64783L71.9865 4.70589V0.926536L71.7854 0.891697ZM91.3117 35.9898L91.0126 36.0543C90.6148 36.1291 90.2106 36.1641 89.8059 36.1588C87.5859 36.1588 83.8614 35.2427 83.8614 29.1098V15.7575H90.7651V12.1381H83.8601V4.18073H79.6959V12.1369H76.0256V15.7562H79.6405V29.4917C79.6405 38.6336 85.8029 39.9988 89.4772 39.9988C90.4737 39.9988 91.0835 39.8904 91.108 39.8852L91.3117 39.8491V35.9898ZM99.7264 31.1317C99.7264 31.1317 102.75 34.1601 107.23 34.1601C109.175 34.1601 110.846 33.2956 110.846 31.6736C110.846 27.564 97.4586 28.1046 97.4586 19.2388C97.4586 14.1033 102.048 11.1278 107.985 11.1278C114.194 11.1278 117.216 14.2633 117.216 14.2633L114.68 19.3472C114.68 19.3472 112.143 16.9678 107.932 16.9678C106.15 16.9678 104.423 17.724 104.423 19.4543C104.423 23.3472 117.811 22.8607 117.811 31.7252C117.811 36.3214 113.816 39.9962 107.285 39.9962C100.428 39.9962 96.5936 35.942 96.5936 35.942L99.7264 31.1317ZM141.578 22.1588C141.47 18.4272 139.148 16.4259 136.125 16.4259C132.618 16.4259 130.186 18.5898 129.538 22.1588H141.578ZM136.287 11.1278C144.223 11.1278 148.488 16.9123 148.488 24.2117C148.488 25.022 148.327 26.862 148.327 26.862H129.324C129.755 31.6749 133.482 34.1601 137.583 34.1601C142.01 34.1601 145.518 31.1317 145.518 31.1317L148.164 36.053C148.164 36.053 143.953 39.9975 137.097 39.9975C127.973 39.9975 122.304 33.404 122.304 25.564C122.304 17.0762 128.082 11.1278 136.287 11.1278ZM155.388 11.7781H161.976V16.5356C161.976 17.5614 161.867 18.4814 161.867 18.4814H161.974C163.217 14.5356 166.51 11.3988 170.72 11.3988C171.369 11.3988 171.962 11.5072 171.962 11.5072V18.2659C171.962 18.2659 171.261 18.1575 170.343 18.1575C167.426 18.1575 164.134 19.8323 162.839 23.942C162.408 25.293 162.246 26.8065 162.246 28.4285V39.3498H155.388V11.7781ZM174.948 11.7781H182.181L187.904 28.8607C188.446 30.484 188.823 32.3162 188.874 32.3162H188.985C189.037 32.3162 189.415 30.484 189.955 28.8607L195.679 11.7769H202.912L193.033 39.3498H184.935L174.948 11.7781ZM223.874 22.1588C223.767 18.4272 221.445 16.4259 218.422 16.4259C214.913 16.4259 212.483 18.5898 211.836 22.1588H223.874ZM218.585 11.1278C226.521 11.1278 230.786 16.9123 230.786 24.2117C230.786 25.022 230.623 26.862 230.623 26.862H211.62C212.052 31.6749 215.777 34.1601 219.88 34.1601C224.306 34.1601 227.815 31.1317 227.815 31.1317L230.462 36.053C230.462 36.053 226.25 39.9975 219.394 39.9975C210.272 39.9975 204.602 33.404 204.602 25.564C204.602 17.0762 210.379 11.1278 218.585 11.1278Z" fill="white"/>
</svg>
