<svg width="24" height="24" viewBox="0 0 24 24" fill="none" xmlns="http://www.w3.org/2000/svg">
<g clip-path="url(#clip0_1218_2077)">
<rect width="24" height="24" rx="12" fill="white"/>
<g clip-path="url(#clip1_1218_2077)">
<path d="M12 24C18.6274 24 24 18.6274 24 12C24 5.37258 18.6274 0 12 0C5.37258 0 0 5.37258 0 12C0 18.6274 5.37258 24 12 24Z" fill="url(#paint0_linear_1218_2077)"/>
<path d="M9.80001 17.5002C9.41121 17.5002 9.47731 17.3534 9.34321 16.9832L8.20001 13.2209L17 8.00024" fill="#C8DAEA"/>
<path d="M9.79999 17.5002C10.1 17.5002 10.2325 17.363 10.4 17.2002L12 15.6444L10.0042 14.4409" fill="#A9C9DD"/>
<path d="M10.004 14.441L14.84 18.0139C15.3919 18.3184 15.7901 18.1607 15.9276 17.5016L17.8961 8.22532C18.0976 7.41732 17.5881 7.05072 17.0601 7.29042L5.50108 11.7475C4.71208 12.064 4.71678 12.5042 5.35728 12.7003L8.32358 13.6262L15.1909 9.29372C15.5151 9.09712 15.8127 9.20272 15.5685 9.41952" fill="url(#paint1_linear_1218_2077)"/>
</g>
</g>
<defs>
<linearGradient id="paint0_linear_1218_2077" x1="16.008" y1="4.008" x2="10.008" y2="18" gradientUnits="userSpaceOnUse">
<stop stop-color="#37AEE2"/>
<stop offset="1" stop-color="#1E96C8"/>
</linearGradient>
<linearGradient id="paint1_linear_1218_2077" x1="13.5044" y1="12.001" x2="15.3771" y2="16.2679" gradientUnits="userSpaceOnUse">
<stop stop-color="#EFF7FC"/>
<stop offset="1" stop-color="white"/>
</linearGradient>
<clipPath id="clip0_1218_2077">
<rect width="24" height="24" rx="12" fill="white"/>
</clipPath>
<clipPath id="clip1_1218_2077">
<rect width="24" height="24" fill="white"/>
</clipPath>
</defs>
</svg>
