<svg width="104" height="30" viewBox="0 0 104 30" fill="none" xmlns="http://www.w3.org/2000/svg">
<g clip-path="url(#clip0_1335_341)">
<path d="M0.838592 28.2857C0.379092 28.2857 0.0065918 27.9142 0.0065918 27.456V2.51762C0.0065918 2.0594 0.379091 1.68793 0.838592 1.68793H9.69866C11.8775 1.68793 13.7808 2.03757 15.4087 2.73686C17.0616 3.43614 18.439 4.38518 19.541 5.58395C20.643 6.78272 21.4694 8.19377 22.0203 9.81709C22.5713 11.4154 22.8468 13.1262 22.8468 14.9494C22.8468 16.9723 22.5337 18.8079 21.9076 20.4562C21.3066 22.0796 20.43 23.4781 19.278 24.6519C18.126 25.8007 16.736 26.6998 15.1082 27.3492C13.5054 27.9735 11.7022 28.2857 9.69866 28.2857H0.838592ZM17.6251 14.9494C17.6251 13.6757 17.4498 12.5018 17.0992 11.428C16.7485 10.3541 16.2352 9.43 15.559 8.65578C14.8828 7.8816 14.0438 7.28223 13.042 6.85764C12.0653 6.43305 10.9509 6.22077 9.69866 6.22077H6.02271C5.5632 6.22077 5.19071 6.59227 5.19071 7.05046V22.9232C5.19071 23.3814 5.5632 23.7529 6.02271 23.7529H9.69866C10.9759 23.7529 12.1029 23.5281 13.0796 23.0785C14.0813 22.629 14.9078 22.0171 15.559 21.2429C16.2352 20.4437 16.7485 19.5071 17.0992 18.4333C17.4498 17.3594 17.6251 16.1981 17.6251 14.9494Z" fill="#F8F8F8"/>
<path d="M55.1187 14.7367C55.1187 13.1133 55.4066 11.515 55.9828 9.94158C56.5835 8.34323 57.4475 6.9197 58.5745 5.67094C59.7018 4.42222 61.0792 3.41076 62.707 2.63655C64.3344 1.86234 66.1881 1.47524 68.2668 1.47524C70.7208 1.47524 72.8374 2.01219 74.6154 3.08609C76.1921 4.025 77.4147 5.21208 78.2825 6.64736C78.4975 7.00308 78.379 7.45763 78.0358 7.69326L75.4628 9.46049C75.0393 9.75146 74.459 9.58934 74.1828 9.15649C73.9398 8.77546 73.6707 8.43773 73.3757 8.1434C72.8753 7.61896 72.3362 7.20685 71.76 6.90717C71.1847 6.60749 70.5835 6.39522 69.9575 6.27035C69.331 6.12051 68.7178 6.04554 68.1162 6.04554C66.8142 6.04554 65.6743 6.30781 64.6984 6.83225C63.7466 7.35674 62.945 8.04355 62.2939 8.89265C61.6674 9.71682 61.1919 10.6659 60.8662 11.7397C60.5405 12.7886 60.3778 13.8376 60.3778 14.8865C60.3778 16.0603 60.5659 17.1966 60.9415 18.2955C61.3171 19.3694 61.843 20.3185 62.519 21.1426C63.2199 21.9668 64.0469 22.6286 64.9983 23.1281C65.9751 23.6276 67.0396 23.8773 68.1915 23.8773C68.7927 23.8773 69.4187 23.8024 70.0698 23.6525C70.7208 23.5027 71.3348 23.2654 71.9106 22.9408C72.5113 22.6161 73.0629 22.204 73.5634 21.7045C73.8579 21.3964 74.1175 21.0538 74.3425 20.6768C74.5996 20.2463 75.1516 20.053 75.5872 20.3029L78.3715 21.8998C78.7359 22.109 78.8911 22.5596 78.6918 22.9293C78.2966 23.6621 77.7895 24.3277 77.1701 24.9262C76.3934 25.6754 75.5048 26.3123 74.5027 26.8368C73.5263 27.3612 72.4743 27.7608 71.3473 28.0355C70.2204 28.3103 69.1184 28.4476 68.0414 28.4476C66.1378 28.4476 64.3976 28.0481 62.8197 27.2489C61.2419 26.4497 59.877 25.4132 58.7251 24.1395C57.5981 22.8409 56.7087 21.3799 56.0577 19.7565C55.4316 18.1082 55.1187 16.4349 55.1187 14.7367ZM103.943 5.32828C103.943 5.78648 103.57 6.15797 103.111 6.15797H95.4154V27.3932C95.4154 27.8514 95.0431 28.2229 94.5834 28.2229H91.1011C90.6414 28.2229 90.2691 27.8514 90.2691 27.3932V6.15797H82.5735C82.1142 6.15797 81.7415 5.78648 81.7415 5.32828V2.45477C81.7415 1.99655 82.1142 1.62509 82.5735 1.62509H103.111C103.57 1.62509 103.943 1.99655 103.943 2.45478V5.32828Z" fill="#FF3A3A"/>
<path d="M30.053 8.54924H28.0612C27.6017 8.54924 27.2292 8.92069 27.2292 9.37893V11.3652C27.2292 11.8234 27.6017 12.1948 28.0612 12.1948H30.053C30.5125 12.1948 30.885 11.8234 30.885 11.3652V9.37893C30.885 8.92069 30.5125 8.54924 30.053 8.54924Z" fill="#F8F8F8"/>
<path d="M30.053 17.8518H28.0612C27.6017 17.8518 27.2292 18.2233 27.2292 18.6815V20.6677C27.2292 21.1259 27.6017 21.4974 28.0612 21.4974H30.053C30.5125 21.4974 30.885 21.1259 30.885 20.6677V18.6815C30.885 18.2233 30.5125 17.8518 30.053 17.8518Z" fill="#F8F8F8"/>
<path d="M38.6236 2.35498C38.7053 1.97188 39.0446 1.69796 39.4373 1.69796H42.9678C43.497 1.69796 43.8913 2.18414 43.7815 2.70031L38.4627 27.6287C38.381 28.0118 38.0417 28.2857 37.6489 28.2857H34.1187C33.5895 28.2857 33.1947 27.7995 33.3048 27.2833L38.6236 2.35498Z" fill="#F8F8F8"/>
<path d="M47.9519 2.35498C48.0338 1.97188 48.3729 1.69796 48.766 1.69796H52.2962C52.8253 1.69796 53.2201 2.18414 53.1099 2.70031L47.7913 27.6287C47.7094 28.0118 47.3703 28.2857 46.9776 28.2857H43.447C42.9179 28.2857 42.5231 27.7995 42.6333 27.2833L47.9519 2.35498Z" fill="#FF3A3A"/>
</g>
<defs>
<clipPath id="clip0_1335_341">
<rect width="104" height="30" fill="white"/>
</clipPath>
</defs>
</svg>
